<svg height="512" viewBox="-60 0 512 512" width="512" xmlns="http://www.w3.org/2000/svg"><title>college</title><g class="nc-icon-wrapper" fill="#ffffff"><path d="M375.938 374.617c-10.36-12.879-24.954-21.918-41.094-25.46l-85.828-18.829v-11.441c20.191-15.75 33.214-40.285 33.214-67.82V208.46v-8.859a85.962 85.962 0 0 0-15.023-48.532 9.996 9.996 0 0 0 1.691-5.562v-30.762l47.743-24.164a9.995 9.995 0 0 0 5.472-8.496 9.995 9.995 0 0 0-4.73-8.934L201.488 1.492a10.022 10.022 0 0 0-10.52 0L75.075 73.156a9.98 9.98 0 0 0-4.719 8.504c-.007 0-.015.004-.023.004v45.027c-11.637 4.13-20 15.243-20 28.282V213.5c0 5.52 4.48 10 10 10h40c5.059 0 9.23-3.762 9.898-8.637v36.203c0 27.329 12.825 51.696 32.754 67.461v11.801l-85.828 18.828c-16.14 3.543-30.738 12.582-41.094 25.457C5.703 387.493 0 403.683 0 420.207v81.79c0 5.523 4.477 10 10 10h24.488c5.524 0 10-4.477 10-10 0-5.52-4.476-9.997-10-9.997H20v-71.79c0-24.585 17.43-46.25 41.441-51.519l37.329-8.187L133.234 492h-18.742c-5.523 0-10 4.477-10 9.996 0 5.524 4.477 10 10 10h31.649c.015 0 .03.004.046.004.008 0 .02-.004.032-.004h98.879c.011 0 .02.004.03.004.017 0 .032-.004.048-.004H382c5.523 0 10-4.476 10-10v-81.785c0-16.527-5.703-32.719-16.063-45.594zM273.03 356.074L237.402 492h-28.75l37.578-141.805zm-24.133-217.23l-42.671 17.789v-21.531c0-5.52-4.477-10-10-10-5.52 0-10 4.48-10 10v21.53l-42.633-17.773V107.16c34.215-9.945 71.094-9.945 105.304 0zm-105.726 21.508l49.207 20.515c1.23.512 2.539.77 3.848.77 1.308 0 2.617-.258 3.847-.77l49.207-20.512a65.949 65.949 0 0 1 12.938 38.098h-131.98a65.985 65.985 0 0 1 12.933-38.101zM196.23 21.758l95.47 59.031-25.063 12.688a9.96 9.96 0 0 0-4.575-3.157c-42.425-14.144-89.148-14.152-131.57-.023a9.96 9.96 0 0 0-4.644 3.191L100.754 80.79zM90.332 203.5h-20v-48.527c0-5.516 4.488-10 10-10 5.516 0 10 4.484 10 10zm0-76.809V97.93l33.262 16.836v30.761c0 2.008.605 3.922 1.668 5.528a85.9 85.9 0 0 0-14.93 44.414v-40.496c0-13.04-8.36-24.153-20-28.282zm39.898 124.375v-32.613h132v32.613c0 36.395-29.609 66-66 66-36.394 0-66-29.605-66-66zm66 86a85.544 85.544 0 0 0 32.786-6.507v6.511L195.71 462.758l-32.727-124.86v-7.52a85.543 85.543 0 0 0 33.246 6.688zm-77.91 19.149l27.223-5.973L182.699 492H153.91zM372 492H258.078l34.504-131.637 37.977 8.328c24.011 5.27 41.441 26.934 41.441 51.52zm0 0"/><path d="M195.988 293.797c7.426 0 14.407-2.89 19.657-8.145 3.906-3.902 3.906-10.234 0-14.14s-10.239-3.907-14.141 0c-1.473 1.472-3.434 2.285-5.516 2.285s-4.039-.813-5.511-2.285c-3.907-3.903-10.239-3.903-14.145 0-3.902 3.906-3.906 10.234 0 14.144 5.25 5.25 12.23 8.14 19.656 8.14zm0 0"/><path d="M74.492 492c-2.633 0-5.21 1.07-7.07 2.93a10.066 10.066 0 0 0-2.93 7.07c0 2.629 1.07 5.21 2.93 7.07a10.073 10.073 0 0 0 7.07 2.93c2.63 0 5.207-1.07 7.07-2.93 1.86-1.86 2.93-4.441 2.93-7.07s-1.07-5.21-2.93-7.07a10.087 10.087 0 0 0-7.07-2.93zm0 0"/></g></svg>