<svg height="512" viewBox="-10 0 512 512.001" width="512" xmlns="http://www.w3.org/2000/svg"><title>mortarboard</title><g class="nc-icon-wrapper" fill="#3b5561"><path d="M480.922 129.078L255.355 2.54c-6.039-3.387-13.539-3.387-19.574 0L10.215 129.08A20.023 20.023 0 0 0 0 146.518c0 7.227 3.914 13.91 10.215 17.446l58.347 32.73V307.02a19.974 19.974 0 0 0 8.833 16.59l11.93 8.03a37.734 37.734 0 0 0-5.048 18.891V502c0 5.523 4.477 10 10 10h56c5.524 0 10-4.477 10-10V379.406l74.125 49.903a19.955 19.955 0 0 0 11.168 3.425c3.887 0 7.778-1.14 11.168-3.425l157.008-105.7a19.979 19.979 0 0 0 8.832-16.59V196.696l58.348-32.73a20.024 20.024 0 0 0 10.215-17.445 20.018 20.018 0 0 0-10.22-17.442zm-392.36 78.84l23.715 13.3v92.653a37.902 37.902 0 0 0-8.425 3.438l-15.29-10.29zm51.715 152.648v16.298h-36.004V350.53c0-9.926 8.079-18.004 18.004-18.004 9.926 0 18 8.078 18 18.004zM104.273 492v-95.137h36.004V492zm298.301-184.98L255.57 405.984v-41.457c0-5.52-4.476-10-10-10-5.523 0-10 4.48-10 10v41.457l-75.293-50.687v-4.77c0-17.492-11.882-32.254-28-36.656v-81.433l103.508 58.066a20.01 20.01 0 0 0 9.785 2.539c3.383 0 6.766-.848 9.785-2.54l147.22-82.585zm6.145-125.485c-.692.29-1.336.66-1.938 1.09l-161.21 90.434-102.477-57.485 76.582-43.078c6.969 5.004 15.96 8.027 25.777 8.027 22.055 0 40-15.253 40-34 0-18.75-17.945-34.003-40-34.003-22.058 0-40.004 15.253-40.004 34.003 0 3.489.625 6.856 1.778 10.028l-84.559 47.566-38.309-21.492a9.932 9.932 0 0 0-1.941-1.086L20 146.523 245.566 19.984l225.57 126.536zm-183.27-35.012c0-7.59 9.16-14 20.004-14 10.84 0 20 6.41 20 14s-9.16 14-20 14c-10.844 0-20.004-6.41-20.004-14zm0 0"/><path d="M245.57 314.535c-2.632 0-5.21 1.059-7.07 2.918a10.1 10.1 0 0 0-2.93 7.07c0 2.641 1.07 5.211 2.93 7.082a10.061 10.061 0 0 0 7.07 2.918c2.63 0 5.211-1.058 7.07-2.918a10.107 10.107 0 0 0 2.93-7.082c0-2.628-1.07-5.207-2.93-7.07a10.068 10.068 0 0 0-7.07-2.918zm0 0"/></g></svg>