<svg id="Capa_1" height="512" viewBox="0 0 512 512" width="512" xmlns="http://www.w3.org/2000/svg"><title>settings</title><g class="nc-icon-wrapper" fill="#ffffff"><path d="M485.884 49.597H276.061l-16.849-16.848c-3.673-3.672-8.567-5.695-13.781-5.695s-10.108 2.023-13.795 5.709l-1.557 1.563a111.913 111.913 0 0 0-20.826-8.633v-2.216c0-10.74-8.737-19.477-19.478-19.477h-26.586c-10.739 0-19.477 8.737-19.477 19.477v2.216a111.952 111.952 0 0 0-20.826 8.633l-1.57-1.577c-3.673-3.673-8.567-5.696-13.782-5.696-5.214 0-10.108 2.023-13.781 5.695L76.906 49.597h-50.79C11.716 49.597 0 61.313 0 75.713v294.69c0 14.4 11.716 26.116 26.116 26.116h145.562l-20.155 40.862h-16.396c-19.47 0-35.31 15.839-35.31 35.309V498c0 5.523 4.478 10 10 10H473.2c21.395 0 38.8-19.213 38.8-42.829V75.713c0-14.4-11.716-26.116-26.116-26.116zm-400.53 64.097a92.855 92.855 0 0 1 12.144-29.285 10 10 0 0 0-1.363-12.405l-6.663-6.689 18.062-18.062 6.633 6.661a10.002 10.002 0 0 0 12.435 1.393c9.068-5.74 18.924-9.824 29.291-12.139a10 10 0 0 0 7.82-9.76V24h25.54v9.408a10 10 0 0 0 7.82 9.76c10.367 2.315 20.222 6.399 29.29 12.139a10 10 0 0 0 12.434-1.393l6.635-6.661 18.062 18.062-6.663 6.689a10 10 0 0 0-1.364 12.405 92.855 92.855 0 0 1 12.144 29.285 10 10 0 0 0 9.755 7.798h9.408v25.54h-9.408a10 10 0 0 0-9.755 7.798 92.9 92.9 0 0 1-12.144 29.313 10 10 0 0 0 1.364 12.405l6.648 6.675-18.048 18.049-6.648-6.648a10 10 0 0 0-12.42-1.378c-9.067 5.739-18.922 9.824-29.29 12.139a10 10 0 0 0-7.82 9.76v9.407h-25.54v-9.407a10 10 0 0 0-7.82-9.76c-10.368-2.315-20.224-6.399-29.291-12.139a10.002 10.002 0 0 0-12.42 1.379l-6.647 6.647-18.048-18.049 6.648-6.675a10 10 0 0 0 1.363-12.405 92.946 92.946 0 0 1-12.144-29.313 10 10 0 0 0-9.755-7.798h-9.407v-25.54H75.6a10 10 0 0 0 9.754-7.798zM20 370.403V348.54h299.232v27.98H26.116A6.124 6.124 0 0 1 20 370.403zm173.98 26.117h125.253v40.862H173.825zm-74.162 76.17c0-8.441 6.868-15.309 15.31-15.309h22.563l.043.002.035-.002h161.463v7.79c0 8.388 2.205 16.215 5.995 22.829h-205.41v-15.31zM492 465.171c0 12.375-8.608 22.829-18.799 22.829H358.032c-10.19 0-18.8-10.454-18.8-22.829v-239.02c0-12.375 8.609-22.829 18.8-22.829h10.287v22.488c0 10.943 8.915 19.846 19.874 19.846h54.846c10.959 0 19.874-8.903 19.874-19.846v-22.488h10.288c10.19 0 18.799 10.454 18.799 22.829zM388.319 225.656v-22.333h54.594v22.333zM492 188.703c-5.573-3.423-11.982-5.38-18.799-5.38H358.032c-21.395 0-38.8 19.213-38.8 42.829V328.54H20V75.713c0-3.315 2.801-6.116 6.116-6.116h43.653c.775 3.482 2.491 6.79 5.186 9.484l1.58 1.586a112.598 112.598 0 0 0-8.638 20.825h-2.2c-10.755 0-19.505 8.75-19.505 19.505v26.558c0 10.74 8.75 19.477 19.505 19.477h2.199a112.603 112.603 0 0 0 8.64 20.853l-1.566 1.572c-7.591 7.592-7.591 19.944 0 27.534l18.783 18.784c7.601 7.6 19.965 7.599 27.563 0l1.556-1.556a112.024 112.024 0 0 0 20.841 8.641v2.216c0 10.739 8.737 19.477 19.477 19.477h26.586c10.74 0 19.478-8.737 19.478-19.477v-2.216a111.947 111.947 0 0 0 20.84-8.641l1.557 1.557c7.598 7.597 19.962 7.599 27.563 0l18.783-18.783c7.591-7.591 7.591-19.943.014-27.521l-1.58-1.587a112.727 112.727 0 0 0 8.639-20.852h2.199c10.756 0 19.506-8.737 19.506-19.477v-26.558c0-10.755-8.75-19.505-19.506-19.505h-2.2a112.53 112.53 0 0 0-8.638-20.825l1.566-1.572c2.7-2.7 4.421-6.013 5.196-9.499h202.692c3.315 0 6.116 2.801 6.116 6.116v112.99z"/><path d="M176.469 203.946c38.432 0 69.698-31.254 69.698-69.67s-31.267-69.67-69.698-69.67c-38.416 0-69.67 31.254-69.67 69.67s31.254 69.67 69.67 69.67zm0-119.34c27.403 0 49.698 22.282 49.698 49.67s-22.295 49.67-49.698 49.67c-27.388 0-49.67-22.282-49.67-49.67s22.282-49.67 49.67-49.67z"/><path d="M502 457.381h-41.426c-5.522 0-10-4.477-10-10s4.478-10 10-10H502c5.522 0 10 4.477 10 10s-4.478 10-10 10zm-131.342 0h-41.426c-5.522 0-10-4.477-10-10s4.478-10 10-10h41.426c5.522 0 10 4.477 10 10s-4.477 10-10 10z"/><g><path d="M415.603 457.381c-5.522 0-10.015-4.477-10.015-10s4.463-10 9.985-10h.029c5.522 0 10 4.477 10 10s-4.477 10-9.999 10z"/></g></g></svg>