<svg version="1.1" id="Capa_1" xmlns="http://www.w3.org/2000/svg" x="0" y="0" viewBox="0 0 512 512" xml:space="preserve" enable-background="new 0 0 512 512" width="512" height="512"><title>university</title><g class="nc-icon-wrapper" fill="#ffffff"><path d="M502 432c5.523 0 10-4.478 10-10V132c0-5.522-4.477-10-10-10h-36V92c0-.068 0-6-6.207-9.253l-200-82a10.006 10.006 0 0 0-7.587 0L52.179 82.759C47 85 46 91.932 46 92v30H10c-5.523 0-10 4.478-10 10v290c0 5.522 4.477 10 10 10h36v20H10c-5.523 0-10 4.478-10 10v40c0 5.522 4.477 10 10 10h492c5.523 0 10-4.478 10-10v-40c0-5.522-4.477-10-10-10h-36v-20h36zm-10-80h-20v-40h20v40zm0-110h-20v-40h20v40zM256 20.808L405.249 82H284.28A29.857 29.857 0 0 0 286 72c0-16.542-13.458-30-30-30s-30 13.458-30 30c0 3.506.61 6.87 1.72 10H106.751L256 20.808zM266 72c0 5.514-4.486 10-10 10s-10-4.486-10-10 4.486-10 10-10 10 4.486 10 10zM66 102h380v20H66v-20zm40 60v-20h52v20h-52zm36 20v190h-20V182h20zm16 210v20h-52v-20h52zm288 40v20H66v-20h380zM216 162h-38v-20h156v20h-38c-5.51 0-10 4.49-10 10s4.49 10 10 10h54v190h-6c-5.523 0-10 4.478-10 10v30h-32v-54.356C302 332.476 281.364 312 256 312s-46 20.476-46 45.644V412h-32v-30c0-5.522-4.477-10-10-10h-6V182h54c5.51 0 10-4.49 10-10s-4.49-10-10-10zm66 195.644V412h-52v-54.356c0-14.14 11.664-25.644 26-25.644s26 11.504 26 25.644zM406 392v20h-52v-20h52zm-36-20V182h20v190h-20zm36-210h-52v-20h52v20zM20 202h20v40H20v-40zm0 110h20v40H20v-40zm0 100v-40h30c5.523 0 10-4.478 10-10v-60c0-5.522-4.477-10-10-10H20v-30h30c5.523 0 10-4.478 10-10v-60c0-5.522-4.477-10-10-10H20v-40h66v30c0 5.522 4.477 10 10 10h6v190h-6c-5.523 0-10 4.478-10 10v30H20zm472 60v20H20v-20h472zm-66-60v-30c0-5.522-4.477-10-10-10h-6V182h6c5.523 0 10-4.478 10-10v-30h66v40h-30c-5.523 0-10 4.478-10 10v60c0 5.522 4.477 10 10 10h30v30h-30c-5.523 0-10 4.478-10 10v60c0 5.522 4.477 10 10 10h30v40h-66z"/><path d="M316.001 202.001h-39.983L195.999 202c-5.523 0-10 4.478-10 10v70c0 5.522 4.477 10 10 10l120.002.001c5.523 0 10-4.478 10-10v-70c0-5.522-4.477-10-10-10zM225.999 272h-20v-50h20v50zm40 0h-20v-50h20v50zm40.002.001h-20v-50h20v50z"/><path d="M256 162c-5.51 0-10 4.49-10 10s4.49 10 10 10 10-4.49 10-10-4.49-10-10-10z"/></g></svg>